<mxfile host="app.diagrams.net" modified="2021-04-15T03:23:19.738Z" agent="5.0 (Macintosh; Intel Mac OS X 10_15_7) AppleWebKit/537.36 (KHTML, like Gecko) Chrome/89.0.4389.90 Safari/537.36" etag="_MaS7Ij9aoIa1LDxki7K" version="14.6.0" type="github">
  <diagram id="C5RBs43oDa-KdzZeNtuy" name="Page-1">
    <mxGraphModel dx="918" dy="591" grid="1" gridSize="10" guides="1" tooltips="1" connect="1" arrows="1" fold="1" page="1" pageScale="1" pageWidth="827" pageHeight="1169" math="0" shadow="0">
      <root>
        <mxCell id="WIyWlLk6GJQsqaUBKTNV-0" />
        <mxCell id="WIyWlLk6GJQsqaUBKTNV-1" parent="WIyWlLk6GJQsqaUBKTNV-0" />
        <mxCell id="zkfFHV4jXpPFQw0GAbJ--0" value="Users" style="swimlane;fontStyle=2;align=center;verticalAlign=top;childLayout=stackLayout;horizontal=1;startSize=26;horizontalStack=0;resizeParent=1;resizeLast=0;collapsible=1;marginBottom=0;rounded=0;shadow=0;strokeWidth=1;" parent="WIyWlLk6GJQsqaUBKTNV-1" vertex="1">
          <mxGeometry x="1520" y="90" width="200" height="240" as="geometry">
            <mxRectangle x="230" y="140" width="160" height="26" as="alternateBounds" />
          </mxGeometry>
        </mxCell>
        <mxCell id="zkfFHV4jXpPFQw0GAbJ--1" value="id" style="text;align=left;verticalAlign=top;spacingLeft=4;spacingRight=4;overflow=hidden;rotatable=0;points=[[0,0.5],[1,0.5]];portConstraint=eastwest;" parent="zkfFHV4jXpPFQw0GAbJ--0" vertex="1">
          <mxGeometry y="26" width="200" height="26" as="geometry" />
        </mxCell>
        <mxCell id="zkfFHV4jXpPFQw0GAbJ--2" value="name" style="text;align=left;verticalAlign=top;spacingLeft=4;spacingRight=4;overflow=hidden;rotatable=0;points=[[0,0.5],[1,0.5]];portConstraint=eastwest;rounded=0;shadow=0;html=0;" parent="zkfFHV4jXpPFQw0GAbJ--0" vertex="1">
          <mxGeometry y="52" width="200" height="26" as="geometry" />
        </mxCell>
        <mxCell id="IS87z-NQS-pWIunTJ4P9-12" value="crypted_password" style="text;align=left;verticalAlign=top;spacingLeft=4;spacingRight=4;overflow=hidden;rotatable=0;points=[[0,0.5],[1,0.5]];portConstraint=eastwest;rounded=0;shadow=0;html=0;" parent="zkfFHV4jXpPFQw0GAbJ--0" vertex="1">
          <mxGeometry y="78" width="200" height="32" as="geometry" />
        </mxCell>
        <mxCell id="IS87z-NQS-pWIunTJ4P9-15" value="email&#xa;" style="text;align=left;verticalAlign=top;spacingLeft=4;spacingRight=4;overflow=hidden;rotatable=0;points=[[0,0.5],[1,0.5]];portConstraint=eastwest;rounded=0;shadow=0;html=0;" parent="zkfFHV4jXpPFQw0GAbJ--0" vertex="1">
          <mxGeometry y="110" width="200" height="26" as="geometry" />
        </mxCell>
        <mxCell id="PfvKTPRVXPHciBwDX97U-33" value="salt" style="text;align=left;verticalAlign=top;spacingLeft=4;spacingRight=4;overflow=hidden;rotatable=0;points=[[0,0.5],[1,0.5]];portConstraint=eastwest;rounded=0;shadow=0;html=0;" parent="zkfFHV4jXpPFQw0GAbJ--0" vertex="1">
          <mxGeometry y="136" width="200" height="26" as="geometry" />
        </mxCell>
        <mxCell id="PfvKTPRVXPHciBwDX97U-60" value="reset_password_token" style="text;align=left;verticalAlign=top;spacingLeft=4;spacingRight=4;overflow=hidden;rotatable=0;points=[[0,0.5],[1,0.5]];portConstraint=eastwest;rounded=0;shadow=0;html=0;" parent="zkfFHV4jXpPFQw0GAbJ--0" vertex="1">
          <mxGeometry y="162" width="200" height="26" as="geometry" />
        </mxCell>
        <mxCell id="PfvKTPRVXPHciBwDX97U-62" value="reset_password_token_expires_at" style="text;align=left;verticalAlign=top;spacingLeft=4;spacingRight=4;overflow=hidden;rotatable=0;points=[[0,0.5],[1,0.5]];portConstraint=eastwest;rounded=0;shadow=0;html=0;" parent="zkfFHV4jXpPFQw0GAbJ--0" vertex="1">
          <mxGeometry y="188" width="200" height="26" as="geometry" />
        </mxCell>
        <mxCell id="PfvKTPRVXPHciBwDX97U-65" value="reset_password_email_sent_at" style="text;align=left;verticalAlign=top;spacingLeft=4;spacingRight=4;overflow=hidden;rotatable=0;points=[[0,0.5],[1,0.5]];portConstraint=eastwest;rounded=0;shadow=0;html=0;" parent="zkfFHV4jXpPFQw0GAbJ--0" vertex="1">
          <mxGeometry y="214" width="200" height="26" as="geometry" />
        </mxCell>
        <mxCell id="PfvKTPRVXPHciBwDX97U-15" value="CountQuestions (質問)" style="swimlane;fontStyle=0;align=center;verticalAlign=top;childLayout=stackLayout;horizontal=1;startSize=26;horizontalStack=0;resizeParent=1;resizeLast=0;collapsible=1;marginBottom=0;rounded=0;shadow=0;strokeWidth=1;" parent="WIyWlLk6GJQsqaUBKTNV-1" vertex="1">
          <mxGeometry x="840" y="470" width="170" height="80" as="geometry">
            <mxRectangle x="550" y="140" width="160" height="26" as="alternateBounds" />
          </mxGeometry>
        </mxCell>
        <mxCell id="PfvKTPRVXPHciBwDX97U-16" value="id" style="text;align=left;verticalAlign=top;spacingLeft=4;spacingRight=4;overflow=hidden;rotatable=0;points=[[0,0.5],[1,0.5]];portConstraint=eastwest;" parent="PfvKTPRVXPHciBwDX97U-15" vertex="1">
          <mxGeometry y="26" width="170" height="26" as="geometry" />
        </mxCell>
        <mxCell id="PfvKTPRVXPHciBwDX97U-9" value="question  (質問)" style="text;align=left;verticalAlign=top;spacingLeft=4;spacingRight=4;overflow=hidden;rotatable=0;points=[[0,0.5],[1,0.5]];portConstraint=eastwest;rounded=0;shadow=0;html=0;" parent="PfvKTPRVXPHciBwDX97U-15" vertex="1">
          <mxGeometry y="52" width="170" height="26" as="geometry" />
        </mxCell>
        <mxCell id="PfvKTPRVXPHciBwDX97U-20" value="SelectQuestions" style="swimlane;fontStyle=0;align=center;verticalAlign=top;childLayout=stackLayout;horizontal=1;startSize=26;horizontalStack=0;resizeParent=1;resizeLast=0;collapsible=1;marginBottom=0;rounded=0;shadow=0;strokeWidth=1;" parent="WIyWlLk6GJQsqaUBKTNV-1" vertex="1">
          <mxGeometry x="1001" y="670" width="240" height="110" as="geometry">
            <mxRectangle x="550" y="140" width="160" height="26" as="alternateBounds" />
          </mxGeometry>
        </mxCell>
        <mxCell id="PfvKTPRVXPHciBwDX97U-21" value="id" style="text;align=left;verticalAlign=top;spacingLeft=4;spacingRight=4;overflow=hidden;rotatable=0;points=[[0,0.5],[1,0.5]];portConstraint=eastwest;" parent="PfvKTPRVXPHciBwDX97U-20" vertex="1">
          <mxGeometry y="26" width="240" height="26" as="geometry" />
        </mxCell>
        <mxCell id="_ksZZNLe6IxRk6yZv9OQ-29" value="question (質問)" style="text;align=left;verticalAlign=top;spacingLeft=4;spacingRight=4;overflow=hidden;rotatable=0;points=[[0,0.5],[1,0.5]];portConstraint=eastwest;rounded=0;shadow=0;html=0;" parent="PfvKTPRVXPHciBwDX97U-20" vertex="1">
          <mxGeometry y="52" width="240" height="26" as="geometry" />
        </mxCell>
        <mxCell id="JSltTQIVNKuVprsPa0v1-2" value="true_answer ( 問題の正解がtrueかfalseか )" style="text;align=left;verticalAlign=top;spacingLeft=4;spacingRight=4;overflow=hidden;rotatable=0;points=[[0,0.5],[1,0.5]];portConstraint=eastwest;" parent="PfvKTPRVXPHciBwDX97U-20" vertex="1">
          <mxGeometry y="78" width="240" height="26" as="geometry" />
        </mxCell>
        <mxCell id="PfvKTPRVXPHciBwDX97U-31" value="&lt;br&gt;" style="text;html=1;align=center;verticalAlign=middle;resizable=0;points=[];autosize=1;strokeColor=none;" parent="WIyWlLk6GJQsqaUBKTNV-1" vertex="1">
          <mxGeometry x="600" y="160" width="20" height="20" as="geometry" />
        </mxCell>
        <mxCell id="JSltTQIVNKuVprsPa0v1-14" value="Question_result" style="swimlane;fontStyle=0;align=center;verticalAlign=top;childLayout=stackLayout;horizontal=1;startSize=26;horizontalStack=0;resizeParent=1;resizeLast=0;collapsible=1;marginBottom=0;rounded=0;shadow=0;strokeWidth=1;" parent="WIyWlLk6GJQsqaUBKTNV-1" vertex="1">
          <mxGeometry x="1560" y="425" width="160" height="110" as="geometry">
            <mxRectangle x="550" y="140" width="160" height="26" as="alternateBounds" />
          </mxGeometry>
        </mxCell>
        <mxCell id="JSltTQIVNKuVprsPa0v1-15" value="id" style="text;align=left;verticalAlign=top;spacingLeft=4;spacingRight=4;overflow=hidden;rotatable=0;points=[[0,0.5],[1,0.5]];portConstraint=eastwest;" parent="JSltTQIVNKuVprsPa0v1-14" vertex="1">
          <mxGeometry y="26" width="160" height="14" as="geometry" />
        </mxCell>
        <mxCell id="JSltTQIVNKuVprsPa0v1-44" value="question_type" style="text;align=left;verticalAlign=top;spacingLeft=4;spacingRight=4;overflow=hidden;rotatable=0;points=[[0,0.5],[1,0.5]];portConstraint=eastwest;" parent="JSltTQIVNKuVprsPa0v1-14" vertex="1">
          <mxGeometry y="40" width="160" height="20" as="geometry" />
        </mxCell>
        <mxCell id="JSltTQIVNKuVprsPa0v1-47" value="total" style="text;align=left;verticalAlign=top;spacingLeft=4;spacingRight=4;overflow=hidden;rotatable=0;points=[[0,0.5],[1,0.5]];portConstraint=eastwest;" parent="JSltTQIVNKuVprsPa0v1-14" vertex="1">
          <mxGeometry y="60" width="160" height="22" as="geometry" />
        </mxCell>
        <mxCell id="JSltTQIVNKuVprsPa0v1-46" value="user_id" style="text;align=left;verticalAlign=top;spacingLeft=4;spacingRight=4;overflow=hidden;rotatable=0;points=[[0,0.5],[1,0.5]];portConstraint=eastwest;" parent="JSltTQIVNKuVprsPa0v1-14" vertex="1">
          <mxGeometry y="82" width="160" height="20" as="geometry" />
        </mxCell>
        <mxCell id="_ksZZNLe6IxRk6yZv9OQ-1" value="ScoreQuestions (質問)" style="swimlane;fontStyle=0;align=center;verticalAlign=top;childLayout=stackLayout;horizontal=1;startSize=26;horizontalStack=0;resizeParent=1;resizeLast=0;collapsible=1;marginBottom=0;rounded=0;shadow=0;strokeWidth=1;" parent="WIyWlLk6GJQsqaUBKTNV-1" vertex="1">
          <mxGeometry x="840" y="258" width="240" height="80" as="geometry">
            <mxRectangle x="550" y="140" width="160" height="26" as="alternateBounds" />
          </mxGeometry>
        </mxCell>
        <mxCell id="_ksZZNLe6IxRk6yZv9OQ-2" value="id" style="text;align=left;verticalAlign=top;spacingLeft=4;spacingRight=4;overflow=hidden;rotatable=0;points=[[0,0.5],[1,0.5]];portConstraint=eastwest;" parent="_ksZZNLe6IxRk6yZv9OQ-1" vertex="1">
          <mxGeometry y="26" width="240" height="26" as="geometry" />
        </mxCell>
        <mxCell id="_ksZZNLe6IxRk6yZv9OQ-4" value="question ( 問題文 )" style="text;align=left;verticalAlign=top;spacingLeft=4;spacingRight=4;overflow=hidden;rotatable=0;points=[[0,0.5],[1,0.5]];portConstraint=eastwest;rounded=0;shadow=0;html=0;" parent="_ksZZNLe6IxRk6yZv9OQ-1" vertex="1">
          <mxGeometry y="52" width="240" height="20" as="geometry" />
        </mxCell>
        <mxCell id="_ksZZNLe6IxRk6yZv9OQ-24" value="type別に選択されたcountカラムの値の和を算出しグラフ化" style="text;html=1;align=center;verticalAlign=middle;resizable=0;points=[];autosize=1;strokeColor=none;" parent="WIyWlLk6GJQsqaUBKTNV-1" vertex="1">
          <mxGeometry x="690" y="400" width="330" height="20" as="geometry" />
        </mxCell>
        <mxCell id="_ksZZNLe6IxRk6yZv9OQ-25" value="さらに3つのtypeのcount合計値を算出しcountresultカラムへ格納" style="text;html=1;align=center;verticalAlign=middle;resizable=0;points=[];autosize=1;strokeColor=none;" parent="WIyWlLk6GJQsqaUBKTNV-1" vertex="1">
          <mxGeometry x="670" y="420" width="360" height="20" as="geometry" />
        </mxCell>
        <mxCell id="_ksZZNLe6IxRk6yZv9OQ-26" value="(ロジックで数値に応じてメンタル状態をフロントに表示)" style="text;html=1;align=center;verticalAlign=middle;resizable=0;points=[];autosize=1;strokeColor=none;" parent="WIyWlLk6GJQsqaUBKTNV-1" vertex="1">
          <mxGeometry x="690" y="440" width="320" height="20" as="geometry" />
        </mxCell>
        <mxCell id="_ksZZNLe6IxRk6yZv9OQ-30" value="選択された値とanserの値が同じ場合" style="text;html=1;align=center;verticalAlign=middle;resizable=0;points=[];autosize=1;strokeColor=none;" parent="WIyWlLk6GJQsqaUBKTNV-1" vertex="1">
          <mxGeometry x="1025" y="630" width="210" height="20" as="geometry" />
        </mxCell>
        <mxCell id="_ksZZNLe6IxRk6yZv9OQ-31" value="その和を算出しselectresultに格納" style="text;html=1;align=center;verticalAlign=middle;resizable=0;points=[];autosize=1;strokeColor=none;" parent="WIyWlLk6GJQsqaUBKTNV-1" vertex="1">
          <mxGeometry x="1020" y="650" width="200" height="20" as="geometry" />
        </mxCell>
        <mxCell id="4N1UO1iAN1PbIpNbBcLF-0" value="" style="fontSize=12;html=1;endArrow=ERmany;entryX=0.55;entryY=1;entryDx=0;entryDy=0;entryPerimeter=0;exitX=0.5;exitY=0;exitDx=0;exitDy=0;" parent="WIyWlLk6GJQsqaUBKTNV-1" source="JSltTQIVNKuVprsPa0v1-14" target="PfvKTPRVXPHciBwDX97U-65" edge="1">
          <mxGeometry width="100" height="100" relative="1" as="geometry">
            <mxPoint x="1450" y="600" as="sourcePoint" />
            <mxPoint x="1550" y="500" as="targetPoint" />
          </mxGeometry>
        </mxCell>
        <mxCell id="4N1UO1iAN1PbIpNbBcLF-9" value="ScoreAnswers" style="swimlane;fontStyle=0;childLayout=stackLayout;horizontal=1;startSize=26;horizontalStack=0;resizeParent=1;resizeParentMax=0;resizeLast=0;collapsible=1;marginBottom=0;align=center;fontSize=14;" parent="WIyWlLk6GJQsqaUBKTNV-1" vertex="1">
          <mxGeometry x="1180" y="240" width="300" height="116" as="geometry" />
        </mxCell>
        <mxCell id="4N1UO1iAN1PbIpNbBcLF-10" value="answer (選択肢)" style="text;strokeColor=none;fillColor=none;spacingLeft=4;spacingRight=4;overflow=hidden;rotatable=0;points=[[0,0.5],[1,0.5]];portConstraint=eastwest;fontSize=12;" parent="4N1UO1iAN1PbIpNbBcLF-9" vertex="1">
          <mxGeometry y="26" width="300" height="30" as="geometry" />
        </mxCell>
        <mxCell id="4N1UO1iAN1PbIpNbBcLF-49" value="score (0 , 5 , 10)" style="text;strokeColor=none;fillColor=none;spacingLeft=4;spacingRight=4;overflow=hidden;rotatable=0;points=[[0,0.5],[1,0.5]];portConstraint=eastwest;fontSize=12;" parent="4N1UO1iAN1PbIpNbBcLF-9" vertex="1">
          <mxGeometry y="56" width="300" height="30" as="geometry" />
        </mxCell>
        <mxCell id="4N1UO1iAN1PbIpNbBcLF-11" value="score_question_id" style="text;strokeColor=none;fillColor=none;spacingLeft=4;spacingRight=4;overflow=hidden;rotatable=0;points=[[0,0.5],[1,0.5]];portConstraint=eastwest;fontSize=12;" parent="4N1UO1iAN1PbIpNbBcLF-9" vertex="1">
          <mxGeometry y="86" width="300" height="30" as="geometry" />
        </mxCell>
        <mxCell id="4N1UO1iAN1PbIpNbBcLF-21" value="" style="fontSize=12;html=1;endArrow=ERmany;entryX=-0.013;entryY=0.833;entryDx=0;entryDy=0;elbow=vertical;exitX=1;exitY=0.5;exitDx=0;exitDy=0;entryPerimeter=0;" parent="WIyWlLk6GJQsqaUBKTNV-1" target="4N1UO1iAN1PbIpNbBcLF-10" edge="1">
          <mxGeometry width="100" height="100" relative="1" as="geometry">
            <mxPoint x="1080" y="312" as="sourcePoint" />
            <mxPoint x="1220" y="311" as="targetPoint" />
          </mxGeometry>
        </mxCell>
        <mxCell id="4N1UO1iAN1PbIpNbBcLF-35" value="" style="edgeStyle=entityRelationEdgeStyle;fontSize=12;html=1;endArrow=ERmany;entryX=1;entryY=0.5;entryDx=0;entryDy=0;exitX=-0.006;exitY=-0.071;exitDx=0;exitDy=0;exitPerimeter=0;" parent="WIyWlLk6GJQsqaUBKTNV-1" source="JSltTQIVNKuVprsPa0v1-15" target="4N1UO1iAN1PbIpNbBcLF-10" edge="1">
          <mxGeometry width="100" height="100" relative="1" as="geometry">
            <mxPoint x="1400" y="520" as="sourcePoint" />
            <mxPoint x="1380" y="311" as="targetPoint" />
          </mxGeometry>
        </mxCell>
        <mxCell id="4N1UO1iAN1PbIpNbBcLF-36" value="" style="fontSize=12;html=1;endArrow=ERmany;exitX=0;exitY=0.5;exitDx=0;exitDy=0;entryX=1;entryY=0.5;entryDx=0;entryDy=0;" parent="WIyWlLk6GJQsqaUBKTNV-1" source="JSltTQIVNKuVprsPa0v1-44" target="PfvKTPRVXPHciBwDX97U-32" edge="1">
          <mxGeometry width="100" height="100" relative="1" as="geometry">
            <mxPoint x="1400" y="520" as="sourcePoint" />
            <mxPoint x="1430" y="514" as="targetPoint" />
          </mxGeometry>
        </mxCell>
        <mxCell id="4N1UO1iAN1PbIpNbBcLF-38" value="CountAnswers" style="swimlane;fontStyle=0;childLayout=stackLayout;horizontal=1;startSize=26;horizontalStack=0;resizeParent=1;resizeParentMax=0;resizeLast=0;collapsible=1;marginBottom=0;align=center;fontSize=14;" parent="WIyWlLk6GJQsqaUBKTNV-1" vertex="1">
          <mxGeometry x="1060" y="425" width="430" height="138" as="geometry" />
        </mxCell>
        <mxCell id="4N1UO1iAN1PbIpNbBcLF-39" value="answer (解答情報)" style="text;strokeColor=none;fillColor=none;spacingLeft=4;spacingRight=4;overflow=hidden;rotatable=0;points=[[0,0.5],[1,0.5]];portConstraint=eastwest;fontSize=12;" parent="4N1UO1iAN1PbIpNbBcLF-38" vertex="1">
          <mxGeometry y="26" width="430" height="30" as="geometry" />
        </mxCell>
        <mxCell id="4N1UO1iAN1PbIpNbBcLF-51" value="count ( 1 ~ 5 )" style="text;align=left;verticalAlign=top;spacingLeft=4;spacingRight=4;overflow=hidden;rotatable=0;points=[[0,0.5],[1,0.5]];portConstraint=eastwest;rounded=0;shadow=0;html=0;" parent="4N1UO1iAN1PbIpNbBcLF-38" vertex="1">
          <mxGeometry y="56" width="430" height="26" as="geometry" />
        </mxCell>
        <mxCell id="PfvKTPRVXPHciBwDX97U-32" value="type ( fisical , mental , action )" style="text;align=left;verticalAlign=top;spacingLeft=4;spacingRight=4;overflow=hidden;rotatable=0;points=[[0,0.5],[1,0.5]];portConstraint=eastwest;rounded=0;shadow=0;html=0;" parent="4N1UO1iAN1PbIpNbBcLF-38" vertex="1">
          <mxGeometry y="82" width="430" height="26" as="geometry" />
        </mxCell>
        <mxCell id="4N1UO1iAN1PbIpNbBcLF-41" value="count_question_id" style="text;strokeColor=none;fillColor=none;spacingLeft=4;spacingRight=4;overflow=hidden;rotatable=0;points=[[0,0.5],[1,0.5]];portConstraint=eastwest;fontSize=12;" parent="4N1UO1iAN1PbIpNbBcLF-38" vertex="1">
          <mxGeometry y="108" width="430" height="30" as="geometry" />
        </mxCell>
        <mxCell id="4N1UO1iAN1PbIpNbBcLF-42" value="" style="fontSize=12;html=1;endArrow=ERmany;exitX=1;exitY=0.5;exitDx=0;exitDy=0;" parent="WIyWlLk6GJQsqaUBKTNV-1" source="PfvKTPRVXPHciBwDX97U-16" edge="1">
          <mxGeometry width="100" height="100" relative="1" as="geometry">
            <mxPoint x="1110" y="540" as="sourcePoint" />
            <mxPoint x="1060" y="509" as="targetPoint" />
          </mxGeometry>
        </mxCell>
        <mxCell id="4N1UO1iAN1PbIpNbBcLF-46" value="SelectAnswer (質問)" style="swimlane;fontStyle=0;align=center;verticalAlign=top;childLayout=stackLayout;horizontal=1;startSize=26;horizontalStack=0;resizeParent=1;resizeLast=0;collapsible=1;marginBottom=0;rounded=0;shadow=0;strokeWidth=1;" parent="WIyWlLk6GJQsqaUBKTNV-1" vertex="1">
          <mxGeometry x="1290" y="670" width="240" height="80" as="geometry">
            <mxRectangle x="550" y="140" width="160" height="26" as="alternateBounds" />
          </mxGeometry>
        </mxCell>
        <mxCell id="4N1UO1iAN1PbIpNbBcLF-47" value="answer ( ture or false )" style="text;align=left;verticalAlign=top;spacingLeft=4;spacingRight=4;overflow=hidden;rotatable=0;points=[[0,0.5],[1,0.5]];portConstraint=eastwest;" parent="4N1UO1iAN1PbIpNbBcLF-46" vertex="1">
          <mxGeometry y="26" width="240" height="26" as="geometry" />
        </mxCell>
        <mxCell id="4N1UO1iAN1PbIpNbBcLF-48" value="select_answer_id" style="text;align=left;verticalAlign=top;spacingLeft=4;spacingRight=4;overflow=hidden;rotatable=0;points=[[0,0.5],[1,0.5]];portConstraint=eastwest;rounded=0;shadow=0;html=0;" parent="4N1UO1iAN1PbIpNbBcLF-46" vertex="1">
          <mxGeometry y="52" width="240" height="26" as="geometry" />
        </mxCell>
        <mxCell id="4N1UO1iAN1PbIpNbBcLF-52" value="" style="fontSize=12;html=1;endArrow=ERmany;exitX=1;exitY=0.5;exitDx=0;exitDy=0;entryX=0;entryY=0.5;entryDx=0;entryDy=0;" parent="WIyWlLk6GJQsqaUBKTNV-1" source="PfvKTPRVXPHciBwDX97U-21" target="4N1UO1iAN1PbIpNbBcLF-47" edge="1">
          <mxGeometry width="100" height="100" relative="1" as="geometry">
            <mxPoint x="1310" y="600" as="sourcePoint" />
            <mxPoint x="1360" y="600" as="targetPoint" />
          </mxGeometry>
        </mxCell>
        <mxCell id="4N1UO1iAN1PbIpNbBcLF-53" value="" style="fontSize=12;html=1;endArrow=ERmany;exitX=0;exitY=0.5;exitDx=0;exitDy=0;entryX=1;entryY=0.5;entryDx=0;entryDy=0;" parent="WIyWlLk6GJQsqaUBKTNV-1" source="JSltTQIVNKuVprsPa0v1-46" target="4N1UO1iAN1PbIpNbBcLF-47" edge="1">
          <mxGeometry width="100" height="100" relative="1" as="geometry">
            <mxPoint x="1570" y="630" as="sourcePoint" />
            <mxPoint x="1500" y="675" as="targetPoint" />
          </mxGeometry>
        </mxCell>
        <mxCell id="LStn7zUUCc4QOrI0x_HO-0" value="ScoreQuestions (質問)" style="swimlane;fontStyle=0;align=center;verticalAlign=top;childLayout=stackLayout;horizontal=1;startSize=26;horizontalStack=0;resizeParent=1;resizeLast=0;collapsible=1;marginBottom=0;rounded=0;shadow=0;strokeWidth=1;" vertex="1" parent="WIyWlLk6GJQsqaUBKTNV-1">
          <mxGeometry x="980" y="850" width="240" height="80" as="geometry">
            <mxRectangle x="550" y="140" width="160" height="26" as="alternateBounds" />
          </mxGeometry>
        </mxCell>
        <mxCell id="LStn7zUUCc4QOrI0x_HO-1" value="id" style="text;align=left;verticalAlign=top;spacingLeft=4;spacingRight=4;overflow=hidden;rotatable=0;points=[[0,0.5],[1,0.5]];portConstraint=eastwest;" vertex="1" parent="LStn7zUUCc4QOrI0x_HO-0">
          <mxGeometry y="26" width="240" height="26" as="geometry" />
        </mxCell>
        <mxCell id="LStn7zUUCc4QOrI0x_HO-2" value="question ( 問題文 )" style="text;align=left;verticalAlign=top;spacingLeft=4;spacingRight=4;overflow=hidden;rotatable=0;points=[[0,0.5],[1,0.5]];portConstraint=eastwest;rounded=0;shadow=0;html=0;" vertex="1" parent="LStn7zUUCc4QOrI0x_HO-0">
          <mxGeometry y="52" width="240" height="20" as="geometry" />
        </mxCell>
        <mxCell id="LStn7zUUCc4QOrI0x_HO-3" value="ScoreAnswers" style="swimlane;fontStyle=0;childLayout=stackLayout;horizontal=1;startSize=26;horizontalStack=0;resizeParent=1;resizeParentMax=0;resizeLast=0;collapsible=1;marginBottom=0;align=center;fontSize=14;" vertex="1" parent="WIyWlLk6GJQsqaUBKTNV-1">
          <mxGeometry x="950" y="1010" width="300" height="176" as="geometry" />
        </mxCell>
        <mxCell id="LStn7zUUCc4QOrI0x_HO-4" value="answer 1" style="text;strokeColor=none;fillColor=none;spacingLeft=4;spacingRight=4;overflow=hidden;rotatable=0;points=[[0,0.5],[1,0.5]];portConstraint=eastwest;fontSize=12;" vertex="1" parent="LStn7zUUCc4QOrI0x_HO-3">
          <mxGeometry y="26" width="300" height="30" as="geometry" />
        </mxCell>
        <mxCell id="LStn7zUUCc4QOrI0x_HO-7" value="answer 2" style="text;strokeColor=none;fillColor=none;spacingLeft=4;spacingRight=4;overflow=hidden;rotatable=0;points=[[0,0.5],[1,0.5]];portConstraint=eastwest;fontSize=12;" vertex="1" parent="LStn7zUUCc4QOrI0x_HO-3">
          <mxGeometry y="56" width="300" height="30" as="geometry" />
        </mxCell>
        <mxCell id="LStn7zUUCc4QOrI0x_HO-8" value="answer 3" style="text;strokeColor=none;fillColor=none;spacingLeft=4;spacingRight=4;overflow=hidden;rotatable=0;points=[[0,0.5],[1,0.5]];portConstraint=eastwest;fontSize=12;" vertex="1" parent="LStn7zUUCc4QOrI0x_HO-3">
          <mxGeometry y="86" width="300" height="30" as="geometry" />
        </mxCell>
        <mxCell id="LStn7zUUCc4QOrI0x_HO-5" value="score ( enum : score { zero : 0 , five : 5 , ten : 10 } )" style="text;strokeColor=none;fillColor=none;spacingLeft=4;spacingRight=4;overflow=hidden;rotatable=0;points=[[0,0.5],[1,0.5]];portConstraint=eastwest;fontSize=12;" vertex="1" parent="LStn7zUUCc4QOrI0x_HO-3">
          <mxGeometry y="116" width="300" height="30" as="geometry" />
        </mxCell>
        <mxCell id="LStn7zUUCc4QOrI0x_HO-6" value="score_question_id" style="text;strokeColor=none;fillColor=none;spacingLeft=4;spacingRight=4;overflow=hidden;rotatable=0;points=[[0,0.5],[1,0.5]];portConstraint=eastwest;fontSize=12;" vertex="1" parent="LStn7zUUCc4QOrI0x_HO-3">
          <mxGeometry y="146" width="300" height="30" as="geometry" />
        </mxCell>
        <mxCell id="LStn7zUUCc4QOrI0x_HO-10" value="" style="fontSize=12;html=1;endArrow=ERzeroToOne;endFill=1;entryX=0.5;entryY=1;entryDx=0;entryDy=0;exitX=0.5;exitY=0;exitDx=0;exitDy=0;" edge="1" parent="WIyWlLk6GJQsqaUBKTNV-1" source="LStn7zUUCc4QOrI0x_HO-3" target="LStn7zUUCc4QOrI0x_HO-0">
          <mxGeometry width="100" height="100" relative="1" as="geometry">
            <mxPoint x="1180" y="1140" as="sourcePoint" />
            <mxPoint x="1280" y="1040" as="targetPoint" />
          </mxGeometry>
        </mxCell>
        <mxCell id="LStn7zUUCc4QOrI0x_HO-11" value="has_one" style="text;html=1;align=center;verticalAlign=middle;resizable=0;points=[];autosize=1;strokeColor=none;" vertex="1" parent="WIyWlLk6GJQsqaUBKTNV-1">
          <mxGeometry x="1110" y="970" width="60" height="20" as="geometry" />
        </mxCell>
      </root>
    </mxGraphModel>
  </diagram>
</mxfile>
